
<svg width="185px" height="50px" viewBox="-57 121 185 50" version="1.1" xmlns="http://www.w3.org/2000/svg" xmlns:xlink="http://www.w3.org/1999/xlink">
    <!-- Generator: Sketch 42 (36781) - http://www.bohemiancoding.com/sketch -->
    <desc>Created with Sketch.</desc>
    <defs>
        <rect id="path-1" x="0" y="0" width="185" height="50"></rect>
    </defs>
    <g id="Group" stroke="none" stroke-width="1" fill="none" fill-rule="evenodd" transform="translate(-57.000000, 121.000000)">
        <mask id="mask-2" fill="white">
            <use xlink:href="#path-1"></use>
        </mask>
        <g id="Mask"></g>
        <text id="You-Go,-We-Go" mask="url(#mask-2)" font-family="Avenir-Book, Avenir" font-size="12" font-weight="normal" fill="#000000">
            <tspan x="52" y="48">You Go, We Go</tspan>
        </text>
        <g id="logo" mask="url(#mask-2)">
            <g transform="translate(91.500000, 17.500000) scale(1, -1) translate(-91.500000, -17.500000) translate(20.000000, 0.000000)">
                <g id="g36" transform="translate(0.292252, 1.139312)">
                    <path d="M30.0742928,16.1991494 C30.165981,12.0240015 29.7167085,8.57577663 26.938554,5.30462278 C24.1603994,2.02414941 19.9427391,0.14160503 15.6975722,0.14160503 C7.15222552,0.14160503 0.0647223234,7.34559911 0.0647223234,16.0220784 C0.0647223234,24.8849482 7.15222552,32.0982618 15.8901176,32.0982618 C21.2263748,32.0982618 25.5265546,29.6751849 28.7448129,25.4068417 L26.2967361,23.0769601 C23.756971,26.720895 20.3369986,28.8830251 15.8534423,28.8830251 C8.92180911,28.8830251 3.44801945,22.9558062 3.44801945,15.9848003 C3.44801945,12.7043269 4.73165522,9.60092456 6.98718664,7.2710429 C9.21521157,5.02503698 12.4334698,3.32888314 15.6242216,3.32888314 C20.8871282,3.32888314 26.4526062,7.2710429 26.4526062,13.0025518 L17.4304805,13.0025518 L17.4304805,16.1991494 L30.0742928,16.1991494 Z" id="path38" fill="#6A5EA7" fill-rule="nonzero"></path>
                </g>
                <g id="g40" transform="translate(33.187343, 0.869615)">
                    <path d="M3.82293461,10.5621302 C3.82293461,6.62928994 6.58275151,3.43269231 10.5528536,3.43269231 C14.5504621,3.43269231 17.2919413,6.62928994 17.2919413,10.5621302 C17.2919413,14.4576923 14.5504621,17.691568 10.5528536,17.691568 C6.58275151,17.691568 3.82293461,14.4576923 3.82293461,10.5621302 M0.595507537,10.5248521 C0.595507537,16.1818047 4.98737562,20.7204142 10.5528536,20.7204142 C16.1275003,20.7204142 20.5101996,16.1818047 20.5101996,10.5248521 C20.5101996,4.88653846 16.090825,0.41316568 10.5528536,0.41316568 C5.04238859,0.41316568 0.595507537,4.88653846 0.595507537,10.5248521" id="path42" fill="#6A5EA7" fill-rule="nonzero"></path>
                </g>
                <g id="g44" transform="translate(61.465753, 1.255651)">
                    <path d="M9.31881536,15.9467456 C8.86954284,16.962574 7.90681602,17.9038462 6.742375,17.9038462 C5.61460929,17.9038462 4.39515532,16.9998521 4.39515532,15.7696746 C4.39515532,14.0269231 6.57733612,13.3745562 8.77785458,12.433284 C11.0058795,11.4826923 13.1880603,10.1313609 13.1880603,6.89748521 C13.1880603,3.27218935 10.2998798,0.625443787 6.77905031,0.625443787 C3.58829855,0.625443787 1.10354646,2.48002959 0.0766378439,5.49955621 L2.94648066,6.7204142 C3.75333743,4.92174556 4.67938895,3.67292899 6.83406327,3.67292899 C8.5486339,3.67292899 9.8781138,4.85650888 9.8781138,6.60857988 C9.8781138,10.9235207 1.33276713,9.43239645 1.33276713,15.4994083 C1.33276713,18.733284 3.90920749,20.9326923 6.97159568,20.9326923 C9.15377648,20.9326923 11.1617496,19.3949704 12.0236193,17.3819527 L9.31881536,15.9467456 Z" id="path46" fill="#373F6E" fill-rule="nonzero"></path>
                </g>
                <g id="g48" transform="translate(77.327586, 2.421627)">
                    <polygon id="path50" fill="#373F6E" fill-rule="nonzero" points="5.24075822 0 2.01333115 0 2.01333115 16.2159763 0.032864535 16.2159763 0.032864535 19.235503 2.01333115 19.235503 2.01333115 26.1785503 5.24075822 26.1785503 5.24075822 19.235503 8.62405534 19.235503 8.62405534 16.2159763 5.24075822 16.2159763"></polygon>
                </g>
                <g id="g52" transform="translate(86.714037, 1.461405)">
                    <path d="M3.82293461,10.5621302 C3.82293461,6.63860947 6.56441385,3.46065089 10.5528536,3.46065089 C14.5504621,3.46065089 17.2736037,6.63860947 17.2736037,10.5621302 C17.2736037,14.4670118 14.5504621,17.7008876 10.5528536,17.7008876 C6.56441385,17.7008876 3.82293461,14.4670118 3.82293461,10.5621302 M0.595507537,10.5341716 C0.595507537,16.1911243 4.98737562,20.7297337 10.5528536,20.7297337 C16.1091627,20.7297337 20.5101996,16.1911243 20.5101996,10.5341716 C20.5101996,4.89585799 16.0724874,0.422485207 10.5528536,0.422485207 C5.02405093,0.422485207 0.595507537,4.89585799 0.595507537,10.5341716" id="path54" fill="#373F6E" fill-rule="nonzero"></path>
                </g>
                <g id="g56" transform="translate(110.674933, 2.266405)">
                    <path d="M3.82293461,17.2928994 L3.91462288,17.2928994 C5.04238859,18.8306213 5.98677776,19.9210059 8.10477677,19.9210059 C9.19586717,19.9210059 10.0760746,19.5761834 10.9837884,19.0356509 L9.46176315,16.0347633 C8.81994527,16.5007396 8.37067275,16.8921598 7.54547833,16.8921598 C4.00631115,16.8921598 3.82293461,12.260355 3.82293461,9.75340237 L3.82293461,0.154289941 L0.613845191,0.154289941 L0.613845191,19.3991124 L3.82293461,19.3991124 L3.82293461,17.2928994 Z" id="path58" fill="#373F6E" fill-rule="nonzero"></path>
                </g>
                <g id="g60" transform="translate(122.346616, 1.871583)">
                    <path d="M15.6647077,12.2544379 C15.2337728,15.0409763 12.9415661,17.2869822 10.1175674,17.2869822 C7.33941283,17.2869822 4.76297247,15.0409763 4.35037526,12.2544379 L15.6647077,12.2544379 Z M4.18533638,9.47721893 C4.22201168,5.89852071 6.70676377,3.05606509 10.401801,3.05606509 C13.1432803,3.05606509 14.9128639,4.7056213 16.1689931,7.01686391 L18.9104724,5.41390533 C17.076707,1.96568047 14.0143188,0.0178994083 10.1450739,0.0178994083 C4.50624532,0.0178994083 0.893727517,4.3887574 0.893727517,9.91523669 C0.893727517,15.637426 4.14866107,20.3158284 10.0808921,20.3158284 C16.1689931,20.3158284 19.3872514,15.1900888 19.0480048,9.47721893 L4.18533638,9.47721893 L4.18533638,9.47721893 Z" id="path62" fill="#373F6E" fill-rule="nonzero"></path>
                </g>
                <g id="g64" transform="translate(93.908583, 8.097944)">
                    <path d="M6.49588076,3.93491124 C6.49588076,2.19215976 5.10221907,0.766272189 3.36014195,0.766272189 C1.64557132,0.766272189 0.242740807,2.19215976 0.242740807,3.93491124 C0.242740807,5.68698225 1.64557132,7.11286982 3.36014195,7.11286982 C5.10221907,7.11286982 6.49588076,5.68698225 6.49588076,3.93491124" id="path66" fill="#373F6E" fill-rule="nonzero"></path>
                </g>
                <g id="g68" transform="translate(40.144182, 6.042160)">
                    <polygon id="path70" fill="#6A5EA7" fill-rule="nonzero" points="0 6.62721893 3.60334897 6.62721893 3.60334897 9.92633136 7.21586677 5.21997041 3.60334897 0.867751479 3.60334897 4.42781065 0 4.42781065"></polygon>
                </g>
            </g>
        </g>
    </g>
</svg>